<svg xmlns="http://www.w3.org/2000/svg" viewBox="0 0 200 200" fill="none">
  <path fill="#7a5b41" fill-rule="evenodd" d="
    M100 40
    C86 18 60 10 38 17
    C13 25 6 52 12 80
    C17 104 32 122 45 138
    C58 154 78 172 100 188
    C122 172 142 154 155 138
    C168 122 183 104 188 80
    C194 52 187 25 162 17
    C140 10 114 18 100 40
    Z
    M62 70
    C44 70 30 84 30 102
    C30 120 44 134 62 134
    C80 134 94 120 94 102
    C94 84 80 70 62 70
    Z
    M138 70
    C120 70 106 84 106 102
    C106 120 120 134 138 134
    C156 134 170 120 170 102
    C170 84 156 70 138 70
    Z
    M70 118
    C58 120 49 111 52 99
    C55 90 66 87 73 93
    C78 97 78 104 73 106
    C69 108 64 105 66 100
    C60 101 60 110 67 113
    C75 116 82 109 80 98
    C79 108 74 116 66 118
    Z
    M130 118
    C142 120 151 111 148 99
    C145 90 134 87 127 93
    C122 97 122 104 127 106
    C131 108 136 105 134 100
    C140 101 140 110 133 113
    C125 116 118 109 120 98
    C121 108 126 116 134 118
    Z
  "/>
</svg>
